<svg width="120" height="120" viewBox="0 0 120 120" fill="none" xmlns="http://www.w3.org/2000/svg">
<path d="M96 116H116V104C116 92.9543 107.046 84 96 84M68 27.9844C68 41.2317 57.256 51.9687 44 51.9687C30.744 51.9687 20 41.2317 20 27.9844C20 14.737 30.744 4 44 4C57.256 4 68 14.737 68 27.9844ZM84 115.927H4C4 110.247 4 104.843 4 99.949C4 86.6942 14.7452 75.9531 28 75.9531H60C73.2548 75.9531 84 86.6942 84 99.949C84 104.843 84 110.247 84 115.927ZM92 68C83.1634 68 76 60.8366 76 52C76 43.1634 83.1634 36 92 36C100.837 36 108 43.1634 108 52C108 60.8366 100.837 68 92 68Z" stroke="#EDC59A"/>
</svg>
